# xmcd
#
# Track frame offsets:
#	150
#	14196
#	30335
#	44648
#	59739
#	74776
#	89580
#	103310
#	119229
#	135094
#	149102
#	163537
#	177967
#	194153
#	210958
#	228129
#	240948
#	254686
#	268337
#	282582
#	297154
#	313269
#	328881
#
# Disc length: 4566 seconds
#
# Revision: 0
# Processed by: cddbd v1.5.2PL0 Copyright (c) Steve Scherf et al.
# Submitted via: EasyCDDAExtractor 16.0.6.1
#
DISCID=8311d417
DTITLE=Ιακωβίδης Αγάθωνας - Ρεμπέτικο συγκρότημα Θεσσαλονίκης-2 LP
DYEAR=1983
DGENRE=Ρεμπέτικη
TTITLE0=Πονώ δεν με λυπάσαι
TTITLE1=Κατάδικος
TTITLE2=Τι σου λέει η μάννα σου
TTITLE3=Γιατί να με γελάσεις
TTITLE4=Η Ελένη η ζωντοχήρα
TTITLE5=Μάγκισσα
TTITLE6=Μη μου λες γιατί ξεχνάω
TTITLE7=Με ζουρνάδες και νταούλια (Μπακαράς)
TTITLE8=Ό,τι ζητήσεις θα το βρεις
TTITLE9=Βρε μάγκα το παράκανες
TTITLE10=Βλάμησσα
TTITLE11=Δυό χρόνια με κολάκευες
TTITLE12=Μα τι να κάνω σ'αγαπώ
TTITLE13=Ιππότης
TTITLE14=Κρυφό τον έχω τον καϋμό
TTITLE15=Ηρωίνη και μαυράκι
TTITLE16=Μιά Σμυρνιά στην κοκκινιά
TTITLE17=Ζουρλοπαινεμένης γέννα
TTITLE18=Ωχ αμάν
TTITLE19=Φέρτε πρέζα να πρεζάρω
TTITLE20=Το κορίτσι σου κυρά μου
TTITLE21=Πρεζάκιας
TTITLE22=Μη με ρωτάς μαννούλα μου
EXTD=
EXTT0=
EXTT1=
EXTT2=
EXTT3=
EXTT4=
EXTT5=
EXTT6=
EXTT7=
EXTT8=
EXTT9=
EXTT10=
EXTT11=
EXTT12=
EXTT13=
EXTT14=
EXTT15=
EXTT16=
EXTT17=
EXTT18=
EXTT19=
EXTT20=
EXTT21=
EXTT22=
PLAYORDER=
